<?xml version="1.0" encoding="UTF-8" standalone="no"?>
<svg
   xmlns:dc="http://purl.org/dc/elements/1.1/"
   xmlns:cc="http://creativecommons.org/ns#"
   xmlns:rdf="http://www.w3.org/1999/02/22-rdf-syntax-ns#"
   xmlns:svg="http://www.w3.org/2000/svg"
   xmlns="http://www.w3.org/2000/svg"
   xmlns:sodipodi="http://sodipodi.sourceforge.net/DTD/sodipodi-0.dtd"
   xmlns:inkscape="http://www.inkscape.org/namespaces/inkscape"
   width="40"
   height="40"
   viewBox="0 0 10.583333 10.583334"
   version="1.1"
   id="svg923"
   inkscape:version="1.0 (4035a4fb49, 2020-05-01)"
   sodipodi:docname="sektempfang.svg">
  <defs
     id="defs917" />
  <sodipodi:namedview
     units="px"
     id="base"
     pagecolor="#ffffff"
     bordercolor="#666666"
     borderopacity="1.0"
     inkscape:pageopacity="0.0"
     inkscape:pageshadow="2"
     inkscape:zoom="3.959798"
     inkscape:cx="86.088629"
     inkscape:cy="90.188711"
     inkscape:document-units="mm"
     inkscape:current-layer="layer1"
     inkscape:document-rotation="0"
     showgrid="false"
     inkscape:window-width="1375"
     inkscape:window-height="1040"
     inkscape:window-x="308"
     inkscape:window-y="0"
     inkscape:window-maximized="0" />
  <metadata
     id="metadata920">
    <rdf:RDF>
      <cc:Work
         rdf:about="">
        <dc:format>image/svg+xml</dc:format>
        <dc:type
           rdf:resource="http://purl.org/dc/dcmitype/StillImage" />
        <dc:title />
      </cc:Work>
    </rdf:RDF>
  </metadata>
  <g
     inkscape:label="Layer 1"
     inkscape:groupmode="layer"
     id="layer1">
    <g
       transform="matrix(0.14381983,0,0,0.14381983,-3.7684449,-14.01666)"
       id="g2442"
       inkscape:export-xdpi="360"
       inkscape:export-ydpi="360">
      <path
         id="path1755-1"
         d="m 58.538289,131.30981 1.461709,1.60197 h 6.000001 l 1.600396,-1.60197 v -5.06429 L 65.999999,125.5 h -6.000001 l -1.461709,0.74552 z"
         style="fill:none;fill-opacity:1;stroke:#1b2714;stroke-width:2.40605;stroke-linecap:round;stroke-linejoin:round;stroke-miterlimit:4;stroke-dasharray:none;stroke-opacity:1" />
      <path
         sodipodi:nodetypes="ccszcccsscc"
         id="path1773-6"
         d="m 59.999998,125.5 v -7.58298 c 0,0 0.505621,-0.25749 0.566304,-0.50244 0.129065,-0.52098 -0.601703,-1.04809 -0.566304,-1.50731 0.0354,-0.45922 0.4201,-0.64917 0.566304,-1.00473 C 63,115.90727 63,106.00473 63,106.00473 c 0,0 0,9.90254 2.362274,8.89781 0,0 0.604975,0.60941 0.637725,1.00473 0.04504,0.54369 -0.773556,0.97893 -0.637725,1.50731 0.06738,0.2621 0.637725,0.50244 0.637725,0.50244 V 125.5"
         style="fill:none;stroke:#1b2714;stroke-width:2.40605;stroke-linecap:round;stroke-linejoin:round;stroke-miterlimit:4;stroke-dasharray:none;stroke-opacity:1" />
      <path
         style="fill:none;stroke:#1b2714;stroke-width:1.20302;stroke-linecap:round;stroke-linejoin:miter;stroke-miterlimit:4;stroke-dasharray:none;stroke-opacity:1;paint-order:fill markers stroke"
         d="m 61.971819,125.52818 v -3.59716 c 0,0 0,-1.08508 1.022352,-1.08508 1.022354,0 1.022353,1.08508 1.022353,1.08508 v 3.59716 z"
         id="path940-6-3-6"
         sodipodi:nodetypes="cczccc" />
      <path
         sodipodi:nodetypes="cczccc"
         id="path940-6-3-5-66"
         d="m 61.57883,162.69089 v -6.49533 c 0,0 0,-1.00976 1.438865,-1.00976 1.438867,0 1.438866,1.00976 1.438866,1.00976 v 6.49533 z"
         style="fill:none;stroke:#1b2714;stroke-width:1.20302;stroke-linecap:round;stroke-linejoin:miter;stroke-miterlimit:4;stroke-dasharray:none;stroke-opacity:1;paint-order:fill markers stroke" />
      <path
         style="fill:none;stroke:#1b2714;stroke-width:1.20302;stroke-linecap:round;stroke-linejoin:miter;stroke-miterlimit:4;stroke-dasharray:none;stroke-opacity:1;paint-order:fill markers stroke"
         d="m 46.172957,159.31844 v -3.71642 c 0,0 0,-0.57775 1.020576,-0.57775 1.020578,0 1.020577,0.57775 1.020577,0.57775 v 3.71642 z"
         id="path940-6-3-5-6-41"
         sodipodi:nodetypes="cczccc" />
      <path
         sodipodi:nodetypes="cczccc"
         id="path940-6-3-5-6-1-2"
         d="m 34.737117,159.31844 v -3.71642 c 0,0 0,-0.57775 1.020576,-0.57775 1.020578,0 1.020577,0.57775 1.020577,0.57775 v 3.71642 z"
         style="fill:none;stroke:#1b2714;stroke-width:1.20302;stroke-linecap:round;stroke-linejoin:miter;stroke-miterlimit:4;stroke-dasharray:none;stroke-opacity:1;paint-order:fill markers stroke" />
      <path
         sodipodi:nodetypes="cczccc"
         id="path940-6-3-5-6-4-8"
         d="m 46.134421,151.13643 v -3.71642 c 0,0 0,-0.57775 1.020576,-0.57775 1.020578,0 1.020577,0.57775 1.020577,0.57775 v 3.71642 z"
         style="fill:none;stroke:#1b2714;stroke-width:1.20302;stroke-linecap:round;stroke-linejoin:miter;stroke-miterlimit:4;stroke-dasharray:none;stroke-opacity:1;paint-order:fill markers stroke" />
      <path
         style="fill:none;stroke:#1b2714;stroke-width:1.20302;stroke-linecap:round;stroke-linejoin:miter;stroke-miterlimit:4;stroke-dasharray:none;stroke-opacity:1;paint-order:fill markers stroke"
         d="m 34.737117,151.13643 v -3.71642 c 0,0 0,-0.57775 1.020576,-0.57775 1.020578,0 1.020577,0.57775 1.020577,0.57775 v 3.71642 z"
         id="path940-6-3-5-6-1-1-5"
         sodipodi:nodetypes="cczccc" />
      <path
         sodipodi:nodetypes="cczccc"
         id="path940-6-3-5-6-5-0"
         d="m 88.996683,159.31844 v -3.71642 c 0,0 0,-0.57775 1.020576,-0.57775 1.020578,0 1.020577,0.57775 1.020577,0.57775 v 3.71642 z"
         style="fill:none;stroke:#1b2714;stroke-width:1.20302;stroke-linecap:round;stroke-linejoin:miter;stroke-miterlimit:4;stroke-dasharray:none;stroke-opacity:1;paint-order:fill markers stroke" />
      <path
         style="fill:none;stroke:#1b2714;stroke-width:1.20302;stroke-linecap:round;stroke-linejoin:miter;stroke-miterlimit:4;stroke-dasharray:none;stroke-opacity:1;paint-order:fill markers stroke"
         d="m 77.560843,159.31844 v -3.71642 c 0,0 0,-0.57775 1.020576,-0.57775 1.020578,0 1.020577,0.57775 1.020577,0.57775 v 3.71642 z"
         id="path940-6-3-5-6-1-0-1"
         sodipodi:nodetypes="cczccc" />
      <path
         style="fill:none;stroke:#1b2714;stroke-width:1.20302;stroke-linecap:round;stroke-linejoin:miter;stroke-miterlimit:4;stroke-dasharray:none;stroke-opacity:1;paint-order:fill markers stroke"
         d="m 88.958147,151.13643 v -3.71642 c 0,0 0,-0.57775 1.020576,-0.57775 1.020578,0 1.020577,0.57775 1.020577,0.57775 v 3.71642 z"
         id="path940-6-3-5-6-4-0-8"
         sodipodi:nodetypes="cczccc" />
      <path
         sodipodi:nodetypes="cczccc"
         id="path940-6-3-5-6-1-1-6-4"
         d="m 77.560843,151.13643 v -3.71642 c 0,0 0,-0.57775 1.020576,-0.57775 1.020578,0 1.020577,0.57775 1.020577,0.57775 v 3.71642 z"
         style="fill:none;stroke:#1b2714;stroke-width:1.20302;stroke-linecap:round;stroke-linejoin:miter;stroke-miterlimit:4;stroke-dasharray:none;stroke-opacity:1;paint-order:fill markers stroke" />
      <path
         id="path1898-2"
         d="M 52.999999,162.75252 V 144.33598"
         style="fill:none;stroke:#1b2714;stroke-width:1.20302;stroke-linecap:butt;stroke-linejoin:miter;stroke-miterlimit:4;stroke-dasharray:none;stroke-opacity:1" />
      <path
         id="path1900-5"
         d="M 72.999999,162.75252 V 144.33598"
         style="fill:none;stroke:#1b2714;stroke-width:1.20302;stroke-linecap:butt;stroke-linejoin:miter;stroke-miterlimit:4;stroke-dasharray:none;stroke-opacity:1" />
      <path
         sodipodi:nodetypes="czszzzscc"
         id="path1902-7"
         d="m 53.001207,144.33478 c 0,0 1.295359,-1.48059 1.891249,-2.07328 0.59589,-0.5927 1.045927,-0.35221 1.358474,-0.54795 0.435084,-0.27251 0.528745,-0.56844 0.967678,-1.13254 0.438935,-0.56412 1.28194,-0.15493 1.898142,-0.61195 0.616202,-0.45701 0.534661,-1.24027 1.293343,-1.46134 0.758683,-0.22105 0.797572,-1.56519 1.081707,-1.82814 0.57561,-0.53269 0.565957,-0.52826 1.300275,-0.52826 0,-1.64126 0.0093,-3.88169 0.0093,-3.88169"
         style="fill:none;stroke:#1b2714;stroke-width:1.20302;stroke-linecap:round;stroke-linejoin:round;stroke-miterlimit:4;stroke-dasharray:none;stroke-opacity:1" />
      <path
         style="fill:none;stroke:#1b2714;stroke-width:1.20302;stroke-linecap:round;stroke-linejoin:round;stroke-miterlimit:4;stroke-dasharray:none;stroke-opacity:1"
         d="m 72.997368,144.33335 c 0,0 -1.347499,-1.47995 -1.967374,-2.07237 -0.619876,-0.59245 -1.088027,-0.35206 -1.413154,-0.54772 -0.452597,-0.27239 -0.550028,-0.56819 -1.006629,-1.13204 -0.456604,-0.56388 -1.33354,-0.15486 -1.974545,-0.61169 -0.641005,-0.45681 -0.556182,-1.23972 -1.345402,-1.4607 -0.789221,-0.22095 -0.829676,-1.56451 -1.125248,-1.82734 -0.598779,-0.53246 -0.588736,-0.52803 -1.352612,-0.52803 0,-1.64055 -0.0097,-3.88 -0.0097,-3.88"
         id="path1902-6-9"
         sodipodi:nodetypes="czszzzscc" />
      <path
         style="fill:none;stroke:#1b2714;stroke-width:1.20302;stroke-linecap:round;stroke-linejoin:miter;stroke-miterlimit:4;stroke-dasharray:none;stroke-opacity:1;paint-order:fill markers stroke"
         d="m 44.041273,142.60363 v -3.71642 c 0,0 0,-0.57775 1.020576,-0.57775 1.020578,0 1.020577,0.57775 1.020577,0.57775 v 3.71642 z"
         id="path940-6-3-5-6-4-1-0"
         sodipodi:nodetypes="cczccc" />
      <path
         sodipodi:nodetypes="cczccc"
         id="path940-6-3-5-6-4-1-1-55"
         d="m 78.935816,142.60363 v -3.71642 c 0,0 0,-0.57775 1.020576,-0.57775 1.020578,0 1.020577,0.57775 1.020577,0.57775 v 3.71642 z"
         style="fill:none;stroke:#1b2714;stroke-width:1.20302;stroke-linecap:round;stroke-linejoin:miter;stroke-miterlimit:4;stroke-dasharray:none;stroke-opacity:1;paint-order:fill markers stroke" />
      <path
         id="path1970-0"
         d="M 58.538289,129.1394 H 41.496175 l -11.988935,6.97632 -2.101675,8.22026 v 18.41654 H 98.586957 V 144.33598 L 96.273192,136.11572 84.439291,129.1394 H 67.600397"
         style="fill:none;stroke:#1b2714;stroke-width:2.40605;stroke-linecap:round;stroke-linejoin:miter;stroke-miterlimit:4;stroke-dasharray:none;stroke-opacity:1" />
      <path
         id="path1972-8"
         d="M 29.50724,136.11572 H 62"
         style="fill:none;stroke:#1b2714;stroke-width:0.601512;stroke-linecap:butt;stroke-linejoin:miter;stroke-miterlimit:4;stroke-dasharray:none;stroke-opacity:1" />
      <path
         id="path1974-9"
         d="M 96.27319,136.11572 H 63.988343"
         style="fill:none;stroke:#1b2714;stroke-width:0.601512;stroke-linecap:butt;stroke-linejoin:miter;stroke-miterlimit:4;stroke-dasharray:none;stroke-opacity:1" />
      <path
         id="path1976-2"
         d="M 27.405565,144.33598 H 52.999999"
         style="fill:none;stroke:#1b2714;stroke-width:0.601512;stroke-linecap:butt;stroke-linejoin:miter;stroke-miterlimit:4;stroke-dasharray:none;stroke-opacity:1" />
      <path
         id="path1978-2"
         d="M 72.999999,144.33598 H 98.586956"
         style="fill:none;stroke:#1b2714;stroke-width:0.601512;stroke-linecap:butt;stroke-linejoin:miter;stroke-miterlimit:4;stroke-dasharray:none;stroke-opacity:1" />
      <path
         style="fill:none;stroke:#1b2714;stroke-width:2.40605;stroke-linecap:butt;stroke-linejoin:miter;stroke-miterlimit:4;stroke-dasharray:none;stroke-opacity:1"
         d="m 60.269486,118.19497 h 6.000001"
         id="path1978-6-7" />
      <path
         style="fill:none;stroke:#1b2714;stroke-width:1.20302;stroke-linecap:round;stroke-linejoin:miter;stroke-miterlimit:4;stroke-dasharray:none;stroke-opacity:1;paint-order:fill markers stroke"
         d="m 86.916992,142.60363 v -3.71642 c 0,0 0,-0.57775 1.020576,-0.57775 1.020578,0 1.020577,0.57775 1.020577,0.57775 v 3.71642 z"
         id="path940-6-3-5-6-4-1-1-5-0"
         sodipodi:nodetypes="cczccc" />
      <path
         sodipodi:nodetypes="cczccc"
         id="path940-6-3-5-6-4-1-2-7"
         d="m 36.77827,142.60363 v -3.71642 c 0,0 0,-0.57775 1.020576,-0.57775 1.020578,0 1.020577,0.57775 1.020577,0.57775 v 3.71642 z"
         style="fill:none;stroke:#1b2714;stroke-width:1.20302;stroke-linecap:round;stroke-linejoin:miter;stroke-miterlimit:4;stroke-dasharray:none;stroke-opacity:1;paint-order:fill markers stroke" />
      <path
         style="fill:none;stroke:#1b2714;stroke-width:1.20302;stroke-linecap:round;stroke-linejoin:miter;stroke-miterlimit:4;stroke-dasharray:none;stroke-opacity:1;paint-order:fill markers stroke"
         d="m 56.497137,151.13643 v -3.71642 c 0,0 0,-0.57775 1.020576,-0.57775 1.020578,0 1.020577,0.57775 1.020577,0.57775 v 3.71642 z"
         id="path940-6-3-5-6-4-3-20"
         sodipodi:nodetypes="cczccc" />
      <path
         sodipodi:nodetypes="cczccc"
         id="path940-6-3-5-6-4-3-2-7"
         d="m 67.600397,151.13643 v -3.71642 c 0,0 0,-0.57775 1.020576,-0.57775 1.020578,0 1.020577,0.57775 1.020577,0.57775 v 3.71642 z"
         style="fill:none;stroke:#1b2714;stroke-width:1.20302;stroke-linecap:round;stroke-linejoin:miter;stroke-miterlimit:4;stroke-dasharray:none;stroke-opacity:1;paint-order:fill markers stroke" />
      <path
         sodipodi:nodetypes="cczccc"
         id="path940-6-3-5-6-4-3-8-0"
         d="m 56.497137,159.31844 v -3.71642 c 0,0 0,-0.57775 1.020576,-0.57775 1.020578,0 1.020577,0.57775 1.020577,0.57775 v 3.71642 z"
         style="fill:none;stroke:#1b2714;stroke-width:1.20302;stroke-linecap:round;stroke-linejoin:miter;stroke-miterlimit:4;stroke-dasharray:none;stroke-opacity:1;paint-order:fill markers stroke" />
      <path
         style="fill:none;stroke:#1b2714;stroke-width:1.20302;stroke-linecap:round;stroke-linejoin:miter;stroke-miterlimit:4;stroke-dasharray:none;stroke-opacity:1;paint-order:fill markers stroke"
         d="m 67.600397,159.31844 v -3.71642 c 0,0 0,-0.57775 1.020576,-0.57775 1.020578,0 1.020577,0.57775 1.020577,0.57775 v 3.71642 z"
         id="path940-6-3-5-6-4-3-2-9-0"
         sodipodi:nodetypes="cczccc" />
    </g>
  </g>
</svg>
