<?xml version="1.0" encoding="UTF-8" standalone="no"?>
<svg
   xmlns:dc="http://purl.org/dc/elements/1.1/"
   xmlns:cc="http://creativecommons.org/ns#"
   xmlns:rdf="http://www.w3.org/1999/02/22-rdf-syntax-ns#"
   xmlns:svg="http://www.w3.org/2000/svg"
   xmlns="http://www.w3.org/2000/svg"
   xmlns:sodipodi="http://sodipodi.sourceforge.net/DTD/sodipodi-0.dtd"
   xmlns:inkscape="http://www.inkscape.org/namespaces/inkscape"
   width="40"
   height="40"
   viewBox="0 0 10.583333 10.583334"
   version="1.1"
   id="svg923"
   inkscape:version="1.0 (4035a4fb49, 2020-05-01)"
   sodipodi:docname="party.svg">
  <defs
     id="defs917" />
  <sodipodi:namedview
     units="px"
     id="base"
     pagecolor="#ffffff"
     bordercolor="#666666"
     borderopacity="1.0"
     inkscape:pageopacity="0.0"
     inkscape:pageshadow="2"
     inkscape:zoom="3.959798"
     inkscape:cx="86.088629"
     inkscape:cy="90.188711"
     inkscape:document-units="mm"
     inkscape:current-layer="layer1"
     inkscape:document-rotation="0"
     showgrid="false"
     inkscape:window-width="1920"
     inkscape:window-height="1017"
     inkscape:window-x="-8"
     inkscape:window-y="-8"
     inkscape:window-maximized="1" />
  <metadata
     id="metadata920">
    <rdf:RDF>
      <cc:Work
         rdf:about="">
        <dc:format>image/svg+xml</dc:format>
        <dc:type
           rdf:resource="http://purl.org/dc/dcmitype/StillImage" />
        <dc:title />
      </cc:Work>
    </rdf:RDF>
  </metadata>
  <g
     inkscape:label="Layer 1"
     inkscape:groupmode="layer"
     id="layer1">
    <g
       id="g3079"
       transform="matrix(0.69421004,0,0,0.69418019,-199.66787,-167.0454)"
       style="opacity:1;stroke-width:0.500361;stroke-miterlimit:4;stroke-dasharray:none"
       inkscape:export-xdpi="360"
       inkscape:export-ydpi="360">
      <g
         id="g1147"
         transform="translate(10.061429,3.3096807)"
         style="stroke-width:0.500361;stroke-miterlimit:4;stroke-dasharray:none">
        <path
           style="opacity:1;fill:#000000;fill-opacity:1;stroke:#1b2714;stroke-width:0.500361;stroke-linecap:round;stroke-linejoin:round;stroke-miterlimit:4;stroke-dasharray:none;stroke-opacity:1"
           d="m 279.60986,244.4942 5.99268,-1.6078"
           id="path2944" />
        <path
           sodipodi:nodetypes="cc"
           id="path2944-4"
           d="m 280.08273,246.49105 5.8863,-1.53688"
           style="opacity:1;fill:#000000;fill-opacity:1;stroke:#1b2714;stroke-width:0.500361;stroke-linecap:round;stroke-linejoin:round;stroke-miterlimit:4;stroke-dasharray:none;stroke-opacity:1" />
        <path
           style="opacity:1;fill:none;fill-opacity:1;stroke:#1b2714;stroke-width:0.500361;stroke-linecap:round;stroke-linejoin:round;stroke-miterlimit:4;stroke-dasharray:none;stroke-opacity:1"
           d="m 279.60986,244.4942 c 0,0 0.46377,2.02954 0.55438,3.0244 0.0906,0.99485 -0.20006,3.07607 -0.20006,3.07607"
           id="path2961"
           sodipodi:nodetypes="czc" />
        <path
           sodipodi:nodetypes="czc"
           id="path2961-6"
           d="m 285.60504,242.88623 c 0,0 0.45974,2.2837 0.54956,3.40315 0.0898,1.11943 -0.19832,3.46129 -0.19832,3.46129"
           style="opacity:1;fill:none;fill-opacity:1;stroke:#1b2714;stroke-width:0.500361;stroke-linecap:round;stroke-linejoin:round;stroke-miterlimit:4;stroke-dasharray:none;stroke-opacity:1" />
        <ellipse
           style="opacity:1;fill:#1b2714;fill-opacity:1;stroke:#1b2714;stroke-width:0.501042;stroke-linecap:round;stroke-linejoin:round;stroke-miterlimit:4;stroke-dasharray:none;stroke-opacity:1;paint-order:fill markers stroke"
           id="path2978"
           cx="104.04958"
           cy="368.41467"
           rx="1.3913893"
           ry="1.1300027"
           transform="matrix(0.8069336,-0.59064217,0.52959837,0.84824853,0,0)" />
        <ellipse
           transform="matrix(0.80693359,-0.59064217,0.52959836,0.84824853,0,0)"
           ry="1.1300027"
           rx="1.3913894"
           cy="371.77344"
           cx="109.5851"
           id="path2978-9"
           style="opacity:1;fill:#1b2714;fill-opacity:1;stroke:#1b2714;stroke-width:0.501042;stroke-linecap:round;stroke-linejoin:round;stroke-miterlimit:4;stroke-dasharray:none;stroke-opacity:1;paint-order:fill markers stroke" />
        <path
           style="opacity:1;fill:#1b2714;fill-opacity:1;stroke:#1b2714;stroke-width:0.500361;stroke-linecap:butt;stroke-linejoin:round;stroke-miterlimit:4;stroke-dasharray:none;stroke-opacity:1;paint-order:markers stroke fill"
           d="m 288.91192,243.23857 c 0.32908,-0.5704 0.9235,-1.1189 1.22148,-1.15831 0.61393,-0.0812 0.35722,0.94202 0.14898,1.40505 -0.23197,0.51577 -0.49513,0.93413 -0.9867,1.41399 -0.55817,-0.3437 -1.15592,-0.83705 -1.51063,-1.26846 -0.2759,-0.43628 -0.37892,-0.7682 -0.24882,-1.01215 0.28634,-0.30628 1.06758,0.75235 1.37569,0.61988 z"
           id="path3291-8"
           sodipodi:nodetypes="csscccc" />
        <path
           sodipodi:nodetypes="csscccc"
           id="path3291-8-0"
           d="m 286.65187,238.79375 c 0.55965,-0.66226 1.45802,-1.23415 1.85333,-1.21561 0.8145,0.0382 0.24285,1.30409 -0.13513,1.85544 -0.42106,0.61414 -0.85977,1.09478 -1.60882,1.60177 -0.643,-0.57574 -1.30232,-1.35465 -1.66118,-1.99651 -0.25561,-0.62977 -0.31157,-1.08394 -0.086,-1.36966 0.44257,-0.32998 1.20762,1.22426 1.63781,1.12457 z"
           style="opacity:1;fill:#1b2714;fill-opacity:1;stroke:#1b2714;stroke-width:0.500361;stroke-linecap:butt;stroke-linejoin:round;stroke-miterlimit:4;stroke-dasharray:none;stroke-opacity:1;paint-order:markers stroke fill" />
      </g>
    </g>
  </g>
</svg>
